<mxfile host="app.diagrams.net" modified="2023-02-03T14:23:51.833Z" agent="5.0 (Windows NT 10.0; Win64; x64) AppleWebKit/537.36 (KHTML, like Gecko) Chrome/109.0.0.0 Safari/537.36 Edg/109.0.1518.70" etag="V_RABlebd0By6tQxb6K_" version="20.8.16" type="github">
  <diagram name="第 1 页" id="X-fnzPZ8gwCwCBB97eZX">
    <mxGraphModel dx="1366" dy="1098" grid="1" gridSize="10" guides="1" tooltips="1" connect="1" arrows="1" fold="1" page="1" pageScale="1" pageWidth="827" pageHeight="1169" math="1" shadow="0">
      <root>
        <mxCell id="0" />
        <mxCell id="1" parent="0" />
        <mxCell id="KbFNdybr3JrF5pc4eIr5-1" value="" style="rounded=0;whiteSpace=wrap;html=1;" vertex="1" parent="1">
          <mxGeometry x="230" y="180" width="30" height="70" as="geometry" />
        </mxCell>
        <mxCell id="KbFNdybr3JrF5pc4eIr5-5" value="$$X_{t-2}$$" style="text;html=1;strokeColor=none;fillColor=none;align=center;verticalAlign=middle;whiteSpace=wrap;rounded=0;" vertex="1" parent="1">
          <mxGeometry x="180" y="200" width="60" height="30" as="geometry" />
        </mxCell>
        <mxCell id="KbFNdybr3JrF5pc4eIr5-6" value="输入层" style="text;html=1;align=center;verticalAlign=middle;resizable=0;points=[];autosize=1;strokeColor=none;fillColor=none;" vertex="1" parent="1">
          <mxGeometry x="215" y="130" width="60" height="30" as="geometry" />
        </mxCell>
        <mxCell id="KbFNdybr3JrF5pc4eIr5-8" value="$$X_{t-1}$$" style="text;html=1;strokeColor=none;fillColor=none;align=center;verticalAlign=middle;whiteSpace=wrap;rounded=0;" vertex="1" parent="1">
          <mxGeometry x="180" y="290" width="60" height="30" as="geometry" />
        </mxCell>
        <mxCell id="KbFNdybr3JrF5pc4eIr5-10" value="$$X_{t+1}$$" style="text;html=1;strokeColor=none;fillColor=none;align=center;verticalAlign=middle;whiteSpace=wrap;rounded=0;" vertex="1" parent="1">
          <mxGeometry x="180" y="380" width="60" height="30" as="geometry" />
        </mxCell>
        <mxCell id="KbFNdybr3JrF5pc4eIr5-12" value="$$X_{t+2}$$" style="text;html=1;strokeColor=none;fillColor=none;align=center;verticalAlign=middle;whiteSpace=wrap;rounded=0;" vertex="1" parent="1">
          <mxGeometry x="180" y="460" width="60" height="30" as="geometry" />
        </mxCell>
        <mxCell id="KbFNdybr3JrF5pc4eIr5-24" value="" style="rounded=0;whiteSpace=wrap;html=1;" vertex="1" parent="1">
          <mxGeometry x="230" y="270" width="30" height="70" as="geometry" />
        </mxCell>
        <mxCell id="KbFNdybr3JrF5pc4eIr5-28" value="" style="rounded=0;whiteSpace=wrap;html=1;" vertex="1" parent="1">
          <mxGeometry x="230" y="360" width="30" height="70" as="geometry" />
        </mxCell>
        <mxCell id="KbFNdybr3JrF5pc4eIr5-32" value="" style="rounded=0;whiteSpace=wrap;html=1;" vertex="1" parent="1">
          <mxGeometry x="230" y="450" width="30" height="70" as="geometry" />
        </mxCell>
        <mxCell id="KbFNdybr3JrF5pc4eIr5-55" value="" style="edgeStyle=orthogonalEdgeStyle;rounded=0;orthogonalLoop=1;jettySize=auto;html=1;" edge="1" parent="1" source="KbFNdybr3JrF5pc4eIr5-40" target="KbFNdybr3JrF5pc4eIr5-54">
          <mxGeometry relative="1" as="geometry" />
        </mxCell>
        <mxCell id="KbFNdybr3JrF5pc4eIr5-40" value="" style="rounded=0;whiteSpace=wrap;html=1;" vertex="1" parent="1">
          <mxGeometry x="391" y="313" width="30" height="57" as="geometry" />
        </mxCell>
        <mxCell id="KbFNdybr3JrF5pc4eIr5-45" value="" style="endArrow=classic;html=1;rounded=0;exitX=1;exitY=0.5;exitDx=0;exitDy=0;entryX=0;entryY=0.5;entryDx=0;entryDy=0;" edge="1" parent="1" source="KbFNdybr3JrF5pc4eIr5-1" target="KbFNdybr3JrF5pc4eIr5-40">
          <mxGeometry width="50" height="50" relative="1" as="geometry">
            <mxPoint x="380" y="300" as="sourcePoint" />
            <mxPoint x="430" y="250" as="targetPoint" />
          </mxGeometry>
        </mxCell>
        <mxCell id="KbFNdybr3JrF5pc4eIr5-48" value="" style="endArrow=classic;html=1;rounded=0;exitX=1;exitY=0.5;exitDx=0;exitDy=0;entryX=0;entryY=0.5;entryDx=0;entryDy=0;" edge="1" parent="1" source="KbFNdybr3JrF5pc4eIr5-24" target="KbFNdybr3JrF5pc4eIr5-40">
          <mxGeometry width="50" height="50" relative="1" as="geometry">
            <mxPoint x="380" y="300" as="sourcePoint" />
            <mxPoint x="430" y="250" as="targetPoint" />
          </mxGeometry>
        </mxCell>
        <mxCell id="KbFNdybr3JrF5pc4eIr5-50" value="" style="endArrow=classic;html=1;rounded=0;exitX=1;exitY=0.5;exitDx=0;exitDy=0;entryX=0;entryY=0.5;entryDx=0;entryDy=0;" edge="1" parent="1" source="KbFNdybr3JrF5pc4eIr5-28" target="KbFNdybr3JrF5pc4eIr5-40">
          <mxGeometry width="50" height="50" relative="1" as="geometry">
            <mxPoint x="340" y="260" as="sourcePoint" />
            <mxPoint x="390" y="210" as="targetPoint" />
          </mxGeometry>
        </mxCell>
        <mxCell id="KbFNdybr3JrF5pc4eIr5-51" value="" style="endArrow=classic;html=1;rounded=0;exitX=1;exitY=0.5;exitDx=0;exitDy=0;entryX=0;entryY=0.5;entryDx=0;entryDy=0;" edge="1" parent="1" source="KbFNdybr3JrF5pc4eIr5-32" target="KbFNdybr3JrF5pc4eIr5-40">
          <mxGeometry width="50" height="50" relative="1" as="geometry">
            <mxPoint x="340" y="260" as="sourcePoint" />
            <mxPoint x="390" y="210" as="targetPoint" />
          </mxGeometry>
        </mxCell>
        <mxCell id="KbFNdybr3JrF5pc4eIr5-53" value="隐藏层" style="text;html=1;align=center;verticalAlign=middle;resizable=0;points=[];autosize=1;strokeColor=none;fillColor=none;" vertex="1" parent="1">
          <mxGeometry x="376" y="270" width="60" height="30" as="geometry" />
        </mxCell>
        <mxCell id="KbFNdybr3JrF5pc4eIr5-54" value="" style="rounded=0;whiteSpace=wrap;html=1;" vertex="1" parent="1">
          <mxGeometry x="490" y="306.5" width="30" height="70" as="geometry" />
        </mxCell>
        <mxCell id="KbFNdybr3JrF5pc4eIr5-56" value="输出层" style="text;html=1;align=center;verticalAlign=middle;resizable=0;points=[];autosize=1;strokeColor=none;fillColor=none;" vertex="1" parent="1">
          <mxGeometry x="475" y="270" width="60" height="30" as="geometry" />
        </mxCell>
        <mxCell id="KbFNdybr3JrF5pc4eIr5-57" value="$$X_{t}$$" style="text;html=1;strokeColor=none;fillColor=none;align=center;verticalAlign=middle;whiteSpace=wrap;rounded=0;" vertex="1" parent="1">
          <mxGeometry x="510" y="320" width="60" height="30" as="geometry" />
        </mxCell>
        <mxCell id="KbFNdybr3JrF5pc4eIr5-58" value="CBOW模型" style="text;html=1;align=center;verticalAlign=middle;resizable=0;points=[];autosize=1;strokeColor=none;fillColor=none;" vertex="1" parent="1">
          <mxGeometry x="366" y="535" width="80" height="30" as="geometry" />
        </mxCell>
        <mxCell id="KbFNdybr3JrF5pc4eIr5-59" value="" style="rounded=0;whiteSpace=wrap;html=1;" vertex="1" parent="1">
          <mxGeometry x="230" y="180" width="30" height="70" as="geometry" />
        </mxCell>
        <mxCell id="KbFNdybr3JrF5pc4eIr5-60" value="$$X_{t-2}$$" style="text;html=1;strokeColor=none;fillColor=none;align=center;verticalAlign=middle;whiteSpace=wrap;rounded=0;" vertex="1" parent="1">
          <mxGeometry x="1003" y="200" width="60" height="30" as="geometry" />
        </mxCell>
        <mxCell id="KbFNdybr3JrF5pc4eIr5-61" value="$$X_{t-1}$$" style="text;html=1;strokeColor=none;fillColor=none;align=center;verticalAlign=middle;whiteSpace=wrap;rounded=0;" vertex="1" parent="1">
          <mxGeometry x="1003" y="290" width="60" height="30" as="geometry" />
        </mxCell>
        <mxCell id="KbFNdybr3JrF5pc4eIr5-62" value="$$X_{t+1}$$" style="text;html=1;strokeColor=none;fillColor=none;align=center;verticalAlign=middle;whiteSpace=wrap;rounded=0;" vertex="1" parent="1">
          <mxGeometry x="1003" y="380" width="60" height="30" as="geometry" />
        </mxCell>
        <mxCell id="KbFNdybr3JrF5pc4eIr5-63" value="$$X_{t+2}$$" style="text;html=1;strokeColor=none;fillColor=none;align=center;verticalAlign=middle;whiteSpace=wrap;rounded=0;" vertex="1" parent="1">
          <mxGeometry x="1003" y="460" width="60" height="30" as="geometry" />
        </mxCell>
        <mxCell id="KbFNdybr3JrF5pc4eIr5-64" value="" style="rounded=0;whiteSpace=wrap;html=1;" vertex="1" parent="1">
          <mxGeometry x="980" y="360" width="30" height="70" as="geometry" />
        </mxCell>
        <mxCell id="KbFNdybr3JrF5pc4eIr5-65" value="" style="rounded=0;whiteSpace=wrap;html=1;" vertex="1" parent="1">
          <mxGeometry x="980" y="450" width="30" height="70" as="geometry" />
        </mxCell>
        <mxCell id="KbFNdybr3JrF5pc4eIr5-66" value="" style="rounded=0;whiteSpace=wrap;html=1;" vertex="1" parent="1">
          <mxGeometry x="980" y="180" width="30" height="70" as="geometry" />
        </mxCell>
        <mxCell id="KbFNdybr3JrF5pc4eIr5-67" value="" style="rounded=0;whiteSpace=wrap;html=1;" vertex="1" parent="1">
          <mxGeometry x="980" y="270" width="30" height="70" as="geometry" />
        </mxCell>
        <mxCell id="KbFNdybr3JrF5pc4eIr5-74" value="" style="edgeStyle=orthogonalEdgeStyle;rounded=0;orthogonalLoop=1;jettySize=auto;html=1;" edge="1" parent="1" source="KbFNdybr3JrF5pc4eIr5-68" target="KbFNdybr3JrF5pc4eIr5-70">
          <mxGeometry relative="1" as="geometry" />
        </mxCell>
        <mxCell id="KbFNdybr3JrF5pc4eIr5-68" value="" style="rounded=0;whiteSpace=wrap;html=1;" vertex="1" parent="1">
          <mxGeometry x="688" y="305" width="30" height="70" as="geometry" />
        </mxCell>
        <mxCell id="KbFNdybr3JrF5pc4eIr5-69" value="$$X_{t}$$" style="text;html=1;strokeColor=none;fillColor=none;align=center;verticalAlign=middle;whiteSpace=wrap;rounded=0;" vertex="1" parent="1">
          <mxGeometry x="628" y="320" width="60" height="30" as="geometry" />
        </mxCell>
        <mxCell id="KbFNdybr3JrF5pc4eIr5-70" value="" style="rounded=0;whiteSpace=wrap;html=1;" vertex="1" parent="1">
          <mxGeometry x="793" y="311.5" width="30" height="57" as="geometry" />
        </mxCell>
        <mxCell id="KbFNdybr3JrF5pc4eIr5-71" value="隐藏层" style="text;html=1;align=center;verticalAlign=middle;resizable=0;points=[];autosize=1;strokeColor=none;fillColor=none;" vertex="1" parent="1">
          <mxGeometry x="783" y="265" width="60" height="30" as="geometry" />
        </mxCell>
        <mxCell id="KbFNdybr3JrF5pc4eIr5-72" value="输入层" style="text;html=1;align=center;verticalAlign=middle;resizable=0;points=[];autosize=1;strokeColor=none;fillColor=none;" vertex="1" parent="1">
          <mxGeometry x="673" y="265" width="60" height="30" as="geometry" />
        </mxCell>
        <mxCell id="KbFNdybr3JrF5pc4eIr5-75" value="" style="endArrow=classic;html=1;rounded=0;exitX=1;exitY=0.5;exitDx=0;exitDy=0;entryX=0;entryY=0.5;entryDx=0;entryDy=0;" edge="1" parent="1" source="KbFNdybr3JrF5pc4eIr5-70" target="KbFNdybr3JrF5pc4eIr5-66">
          <mxGeometry width="50" height="50" relative="1" as="geometry">
            <mxPoint x="853" y="420" as="sourcePoint" />
            <mxPoint x="903" y="370" as="targetPoint" />
          </mxGeometry>
        </mxCell>
        <mxCell id="KbFNdybr3JrF5pc4eIr5-76" value="" style="endArrow=classic;html=1;rounded=0;exitX=1;exitY=0.5;exitDx=0;exitDy=0;entryX=0;entryY=0.5;entryDx=0;entryDy=0;" edge="1" parent="1" source="KbFNdybr3JrF5pc4eIr5-70" target="KbFNdybr3JrF5pc4eIr5-67">
          <mxGeometry width="50" height="50" relative="1" as="geometry">
            <mxPoint x="933" y="470" as="sourcePoint" />
            <mxPoint x="983" y="420" as="targetPoint" />
          </mxGeometry>
        </mxCell>
        <mxCell id="KbFNdybr3JrF5pc4eIr5-77" value="" style="endArrow=classic;html=1;rounded=0;exitX=1;exitY=0.5;exitDx=0;exitDy=0;" edge="1" parent="1" source="KbFNdybr3JrF5pc4eIr5-70">
          <mxGeometry width="50" height="50" relative="1" as="geometry">
            <mxPoint x="1083" y="490" as="sourcePoint" />
            <mxPoint x="983" y="380" as="targetPoint" />
          </mxGeometry>
        </mxCell>
        <mxCell id="KbFNdybr3JrF5pc4eIr5-78" value="" style="endArrow=classic;html=1;rounded=0;exitX=1;exitY=0.5;exitDx=0;exitDy=0;entryX=0;entryY=0.5;entryDx=0;entryDy=0;" edge="1" parent="1" source="KbFNdybr3JrF5pc4eIr5-70" target="KbFNdybr3JrF5pc4eIr5-65">
          <mxGeometry width="50" height="50" relative="1" as="geometry">
            <mxPoint x="1083" y="490" as="sourcePoint" />
            <mxPoint x="1133" y="440" as="targetPoint" />
          </mxGeometry>
        </mxCell>
        <mxCell id="KbFNdybr3JrF5pc4eIr5-79" value="输出层" style="text;html=1;align=center;verticalAlign=middle;resizable=0;points=[];autosize=1;strokeColor=none;fillColor=none;" vertex="1" parent="1">
          <mxGeometry x="965" y="130" width="60" height="30" as="geometry" />
        </mxCell>
        <mxCell id="KbFNdybr3JrF5pc4eIr5-81" value="$$W_{N*V}$$" style="text;html=1;align=center;verticalAlign=middle;resizable=0;points=[];autosize=1;strokeColor=none;fillColor=none;" vertex="1" parent="1">
          <mxGeometry x="250" y="200" width="100" height="30" as="geometry" />
        </mxCell>
        <mxCell id="KbFNdybr3JrF5pc4eIr5-82" value="$$W_{N*V}$$" style="text;html=1;align=center;verticalAlign=middle;resizable=0;points=[];autosize=1;strokeColor=none;fillColor=none;" vertex="1" parent="1">
          <mxGeometry x="250" y="281.5" width="100" height="30" as="geometry" />
        </mxCell>
        <mxCell id="KbFNdybr3JrF5pc4eIr5-83" value="$$W_{N*V}$$" style="text;html=1;align=center;verticalAlign=middle;resizable=0;points=[];autosize=1;strokeColor=none;fillColor=none;" vertex="1" parent="1">
          <mxGeometry x="250" y="350" width="100" height="30" as="geometry" />
        </mxCell>
        <mxCell id="KbFNdybr3JrF5pc4eIr5-84" value="$$W_{N*V}$$" style="text;html=1;align=center;verticalAlign=middle;resizable=0;points=[];autosize=1;strokeColor=none;fillColor=none;" vertex="1" parent="1">
          <mxGeometry x="250" y="460" width="100" height="30" as="geometry" />
        </mxCell>
        <mxCell id="KbFNdybr3JrF5pc4eIr5-86" value="$$W^{&#39;}&lt;br&gt;_{N*V}$$" style="text;html=1;align=center;verticalAlign=middle;resizable=0;points=[];autosize=1;strokeColor=none;fillColor=none;" vertex="1" parent="1">
          <mxGeometry x="903" y="200" width="70" height="40" as="geometry" />
        </mxCell>
        <mxCell id="KbFNdybr3JrF5pc4eIr5-88" value="$$W^{&#39;}&lt;br&gt;_{V*N}$$" style="text;html=1;align=center;verticalAlign=middle;resizable=0;points=[];autosize=1;strokeColor=none;fillColor=none;" vertex="1" parent="1">
          <mxGeometry x="420" y="300" width="70" height="40" as="geometry" />
        </mxCell>
        <mxCell id="KbFNdybr3JrF5pc4eIr5-89" value="$$W^{&#39;}&lt;br&gt;_{N*V}$$" style="text;html=1;align=center;verticalAlign=middle;resizable=0;points=[];autosize=1;strokeColor=none;fillColor=none;" vertex="1" parent="1">
          <mxGeometry x="895" y="276.5" width="70" height="40" as="geometry" />
        </mxCell>
        <mxCell id="KbFNdybr3JrF5pc4eIr5-90" value="$$W^{&#39;}&lt;br&gt;_{N*V}$$" style="text;html=1;align=center;verticalAlign=middle;resizable=0;points=[];autosize=1;strokeColor=none;fillColor=none;" vertex="1" parent="1">
          <mxGeometry x="895" y="330" width="70" height="40" as="geometry" />
        </mxCell>
        <mxCell id="KbFNdybr3JrF5pc4eIr5-91" value="$$W^{&#39;}&lt;br&gt;_{N*V}$$" style="text;html=1;align=center;verticalAlign=middle;resizable=0;points=[];autosize=1;strokeColor=none;fillColor=none;" vertex="1" parent="1">
          <mxGeometry x="895" y="400" width="70" height="40" as="geometry" />
        </mxCell>
        <mxCell id="KbFNdybr3JrF5pc4eIr5-92" value="$$W_{N*V}$$" style="text;html=1;align=center;verticalAlign=middle;resizable=0;points=[];autosize=1;strokeColor=none;fillColor=none;" vertex="1" parent="1">
          <mxGeometry x="708" y="311.5" width="100" height="30" as="geometry" />
        </mxCell>
        <mxCell id="KbFNdybr3JrF5pc4eIr5-93" value="Skip-Gram模型" style="text;html=1;align=center;verticalAlign=middle;resizable=0;points=[];autosize=1;strokeColor=none;fillColor=none;" vertex="1" parent="1">
          <mxGeometry x="758" y="530" width="100" height="30" as="geometry" />
        </mxCell>
      </root>
    </mxGraphModel>
  </diagram>
</mxfile>
